<?xml version="1.0" encoding="utf-8"?>
<!-- Generator: Adobe Illustrator 18.0.0, SVG Export Plug-In . SVG Version: 6.00 Build 0)  -->
<!DOCTYPE svg PUBLIC "-//W3C//DTD SVG 1.1//EN" "http://www.w3.org/Graphics/SVG/1.1/DTD/svg11.dtd">
<svg version="1.1" id="Layer_1" xmlns="http://www.w3.org/2000/svg" xmlns:xlink="http://www.w3.org/1999/xlink" x="0px" y="0px"
	 viewBox="500 -2.3 500 500.9" enable-background="new 500 -2.3 500 500.9" xml:space="preserve">
<rect x="500" y="-2.3" width="500" height="500.9"/>
<g>
	<path fill="#FFFFFF" d="M615.5,228h-38.6c-1,0-1.8,1.6-1.8,3.6v38c0,2,0.8,3.6,1.8,3.6h15v47.2c0,0-3.4,2.3-12.8,2.3
		c-11,0-26.5-8.2-26.5-76.4c0-68.3,16.1-77.3,31.1-77.3c13,0,18.7,4.6,22.2,6.9c1.1,0.7,2.2-1.6,2.2-3.6l4.3-36.7
		c0-1-0.2-2.1-0.7-2.9c-1.5-2.1-10.3-12.1-32.6-12.1c-25.8,0-52.2,22.1-52.2,128.3c0,106.3,30.3,122,55.7,122
		c21.1,0,33.9-18.1,33.9-18.1c0.5-0.6,0.6-2.1,0.6-2.8V231.5C617.3,229.5,616.4,228,615.5,228z"/>
	<path fill="#FFFFFF" d="M814.4,133.5c0-2-0.8-3.6-1.8-3.6h-21.7c-1,0-1.8,1.6-1.8,3.6v84.6h-33.9v-84.6c0-2-0.8-3.6-1.8-3.6h-21.7
		c-1,0-1.8,1.6-1.8,3.6v229.2c0,2,0.8,3.6,1.8,3.6h21.7c1,0,1.8-1.6,1.8-3.6v-98h33.9l-0.1,98c0,2,0.8,3.6,1.8,3.6h21.8
		c1,0,1.8-1.6,1.8-3.6V133.5z"/>
	<g>
		<g>
			<path fill="#FFFFFF" d="M656.4,163.5c0-15.8-6.2-28.6-14-28.6s-14,12.8-14,28.6s6.3,28.6,14,28.6
				C650.2,192.1,656.4,179.3,656.4,163.5z"/>
			<path fill="#FFFFFF" d="M654.9,314.3c0-5.9,0-105.8,0-105.8c0-2-0.8-3.6-1.8-3.6h-21.7c-1,0-1.9,2.1-1.9,4.1c0,0,0,127.3,0,151.6
				c0,4.4,1.4,5.8,3.1,5.8c0,0,9.3,0,19.5,0c2.2,0,2.7-2.1,2.7-5.8C654.9,352.3,654.9,320.5,654.9,314.3z"/>
		</g>
	</g>
	<path fill="#FFFFFF" d="M897,205.2h-21.5c-1,0-1.8,1.6-1.8,3.6v112.4c0,0-5.5,8.1-13.3,8.1s-9.8-7.1-9.8-22.5s0-98,0-98
		c0-2-0.8-3.6-1.8-3.6h-21.9c-1,0-1.8,1.6-1.8,3.6c0,0,0,59.8,0,105.5c0,45.6,12.6,56.8,29.9,56.8c14.2,0,25.7-15.8,25.7-15.8
		s0.5,8.3,0.8,9.4c0.3,1,0.9,2,1.6,2l13.9-0.1c1,0,1.8-1.6,1.8-3.6V209.1C898.8,206.9,898,205.2,897,205.2z"/>
	<path fill="#FFFFFF" d="M955.9,200.1c-12.2,0-20.6,11-20.6,11v-77.6c0-2-0.8-3.6-1.8-3.6h-21.8c-1,0-1.8,1.6-1.8,3.6v229.2
		c0,2,0.8,3.6,1.8,3.6h15.1c0.7,0,1.2-0.7,1.6-1.9c0.3-1.2,1-10.6,1-10.6s8.9,17,25.8,17c19.8,0,31.2-20.2,31.2-90.9
		S968.1,200.1,955.9,200.1z M947.4,329.3c-7.5-0.4-12.6-7.3-12.6-7.3v-72.6c0,0,5-6.2,11.1-7.3c7.7-1.4,15.3,3.3,15.3,40.6
		C961.3,322,957.9,329.9,947.4,329.3z"/>
	<path fill="#FFFFFF" d="M717.4,204.9H701v-43.4c0-1.6-0.4-2.4-1.4-2.4h-22.2c-0.9,0-1.3,0.8-1.3,2.4v44.9c0,0-11.1,5.4-11.9,5.8
		c-0.8,0.4-1.3,1.8-1.3,3.5v28.2c0,2,0.8,3.6,1.8,3.6h11.4c0,0,0,29.5,0,67.8c0,50.3,17.5,55.3,29.3,55.3c5.4,0,11.9-3.5,12.9-4.3
		c0.6-0.5,1-1.8,1-3.3v-31c0-2-0.9-3.6-1.8-3.6c-1,0-3.4,0.8-5.9,0.8c-8,0-10.8-7.5-10.8-17.2s0-64.4,0-64.4h16.3
		c1,0,1.8-1.6,1.8-3.6v-35.3C719.2,206.5,718.3,204.9,717.4,204.9z"/>
</g>
</svg>
