<?xml version="1.0" encoding="utf-8"?>
<!-- Generator: Adobe Illustrator 18.0.0, SVG Export Plug-In . SVG Version: 6.00 Build 0)  -->
<!DOCTYPE svg PUBLIC "-//W3C//DTD SVG 1.1//EN" "http://www.w3.org/Graphics/SVG/1.1/DTD/svg11.dtd">
<svg version="1.1" id="Layer_1" xmlns="http://www.w3.org/2000/svg" xmlns:xlink="http://www.w3.org/1999/xlink" x="0px" y="0px"
	 viewBox="0 0 280.8 259" enable-background="new 0 0 280.8 259" xml:space="preserve">
<g>
	<path fill-rule="evenodd" clip-rule="evenodd" fill="#FFFFFF" stroke="#191717" stroke-miterlimit="10" d="M140.4,0
		C62.9,0,0,59.4,0,132.8c0,58.7,40.2,108.4,96,126c7,1.2,9.6-2.9,9.6-6.4c0-3.2-0.1-13.6-0.2-24.7c-39.1,8-47.3-15.7-47.3-15.7
		c-6.4-15.3-15.6-19.4-15.6-19.4c-12.7-8.2,1-8.1,1-8.1c14.1,0.9,21.5,13.7,21.5,13.7c12.5,20.3,32.8,14.4,40.9,11
		c1.3-8.6,4.9-14.4,8.9-17.8c-31.2-3.4-64-14.7-64-65.6c0-14.5,5.5-26.3,14.5-35.6c-1.5-3.3-6.3-16.8,1.4-35.1
		c0,0,11.8-3.6,38.6,13.6c11.2-2.9,23.2-4.4,35.1-4.5c11.9,0.1,24,1.5,35.2,4.5c26.8-17.2,38.6-13.6,38.6-13.6
		c7.6,18.3,2.8,31.8,1.4,35.1c9,9.3,14.4,21.1,14.4,35.6c0,51-32.8,62.2-64.1,65.5c5,4.1,9.5,12.2,9.5,24.6
		c0,17.8-0.2,32.1-0.2,36.4c0,3.5,2.5,7.7,9.6,6.4c55.8-17.6,95.9-67.3,95.9-126C280.8,59.4,217.9,0,140.4,0z"/>
	<path fill="#191717" d="M53.2,190.6c-0.3,0.7-1.4,0.9-2.4,0.4c-1-0.4-1.6-1.3-1.3-2c0.3-0.7,1.4-0.9,2.4-0.4
		C52.9,189.1,53.5,190,53.2,190.6L53.2,190.6z M51.4,189.4"/>
	<path fill="#191717" d="M58.9,196.6c-0.7,0.6-2,0.3-2.9-0.6c-0.9-0.9-1.1-2.2-0.4-2.8c0.7-0.6,2-0.3,2.9,0.6
		C59.4,194.8,59.6,196,58.9,196.6L58.9,196.6z M57.5,195.3"/>
	<path fill="#191717" d="M64.4,204.3c-0.9,0.6-2.3,0-3.1-1.1c-0.9-1.2-0.9-2.6,0-3.2c0.9-0.6,2.3-0.1,3.1,1.1
		C65.3,202.3,65.3,203.7,64.4,204.3L64.4,204.3z M64.4,204.3"/>
	<path fill="#191717" d="M72,211.7c-0.8,0.8-2.4,0.6-3.6-0.5c-1.2-1.1-1.6-2.6-0.8-3.4c0.8-0.8,2.4-0.6,3.6,0.5
		C72.4,209.4,72.8,210.9,72,211.7L72,211.7z M72,211.7"/>
	<path fill="#191717" d="M82.4,216c-0.3,1-1.9,1.5-3.5,1.1c-1.6-0.5-2.6-1.7-2.3-2.7c0.3-1,1.9-1.5,3.5-1.1
		C81.7,213.7,82.8,214.9,82.4,216L82.4,216z M82.4,216"/>
	<path fill="#191717" d="M93.9,216.8c0,1.1-1.3,2-3,2c-1.7,0-3-0.9-3.1-1.9c0-1.1,1.3-2,3-2C92.6,214.8,93.9,215.7,93.9,216.8
		L93.9,216.8z M93.9,216.8"/>
	<path fill="#191717" d="M104.6,215c0.2,1.1-1,2.2-2.6,2.5c-1.6,0.3-3.1-0.4-3.3-1.4c-0.2-1.1,1-2.2,2.6-2.5
		C102.9,213.3,104.4,214,104.6,215L104.6,215z M104.6,215"/>
</g>
</svg>
